<?xml version="1.0" encoding="UTF-8"?>
<svg width="1600" height="1600" viewBox="0 0 1600 1600" xmlns="http://www.w3.org/2000/svg" role="img" aria-label="Sandook LLC logo">
  <defs>
    <!-- subtle metallic gradient -->
    <linearGradient id="metalGrad" x1="0%" y1="0%" x2="100%" y2="100%">
      <stop offset="0%" stop-color="#f5f6f7"/>
      <stop offset="45%" stop-color="#e0e3e6"/>
      <stop offset="100%" stop-color="#bfc5c9"/>
    </linearGradient>

    <!-- soft drop shadow -->
    <filter id="softShadow" x="-50%" y="-50%" width="200%" height="200%">
      <feOffset dx="0" dy="18" result="off"/>
      <feGaussianBlur in="off" stdDeviation="30" result="blur"/>
      <feColorMatrix in="blur" type="matrix" values="0 0 0 0 0  0 0 0 0 0  0 0 0 0 0  0 0 0 0.25 0" result="shadow"/>
      <feBlend in="SourceGraphic" in2="shadow" mode="normal"/>
    </filter>

    <!-- rounded corner chest path (used as clip path for details) -->
    <clipPath id="chestClip">
      <rect x="320" y="240" width="960" height="720" rx="60" ry="60"/>
    </clipPath>

    <!-- heading font fallback: uses system sans; for best results pair with your web font -->
    <style type="text/css"><![CDATA[
      .wordmark { font-family: 'Inter', 'Helvetica Neue', Arial, sans-serif; font-weight: 700; letter-spacing: 6px; }
      .submark { font-family: 'Inter', 'Helvetica Neue', Arial, sans-serif; font-weight: 600; letter-spacing: 8px; }
    ]]></style>
  </defs>

  <!-- transparent background (useful on any color) -->
  <rect width="1600" height="1600" fill="transparent"/>

  <!-- centered group for icon + text -->
  <g transform="translate(0,0)" filter="none">

    <!-- soft shadow under chest -->
    <ellipse cx="800" cy="1060" rx="260" ry="36" fill="#000" opacity="0.12"/>

    <!-- chest top (lid) -->
    <g transform="translate(0,0)">
      <rect x="360" y="300" width="880" height="240" rx="60" ry="60" fill="url(#metalGrad)" stroke="#aeb6bb" stroke-width="6" />
      <!-- small highlight on lid -->
      <rect x="380" y="320" width="840" height="40" rx="20" ry="20" fill="#ffffff" opacity="0.06"/>
    </g>

    <!-- gap between lid and base -->
    <rect x="320" y="560" width="960" height="20" fill="#0b0b0b" opacity="0.06"/>

    <!-- chest base -->
    <g transform="translate(0,0)">
      <rect x="320" y="580" width="960" height="420" rx="48" ry="48" fill="url(#metalGrad)" stroke="#aeb6bb" stroke-width="6" />
      <!-- inner inset to give depth -->
      <rect x="360" y="640" width="880" height="320" rx="36" ry="36" fill="#0b0b0b" opacity="0.04"/>
    </g>

    <!-- lock plate -->
    <g transform="translate(0,0)">
      <path d="M760 820 L840 820 L840 880 L760 880 Z" fill="#d6d9db" opacity="0.95" />
      <path d="M800 760 L820 820 L780 820 Z" fill="#e9ecef" opacity="0.95"/>

      <!-- keyhole -->
      <path d="M800 830
               c-10 0 -18 8 -18 18
               c0 10 8 18 18 18
               c10 0 18 -8 18 -18
               c0 -10 -8 -18 -18 -18z
               M800 868 L800 892" fill="#0a0a0a" />
    </g>

    <!-- subtle bevel lines on chest sides -->
    <path d="M320 820 q 40 20 80 40" stroke="#ffffff" stroke-opacity="0.06" stroke-width="4" fill="none"/>
    <path d="M1280 820 q -40 20 -80 40" stroke="#ffffff" stroke-opacity="0.06" stroke-width="4" fill="none"/>

    <!-- optional thin outline to separate from dark backgrounds -->
    <rect x="320" y="580" width="960" height="420" rx="48" ry="48" fill="none" stroke="#000000" stroke-opacity="0.06" stroke-width="2"/>

  </g>

  <!-- wordmark under the icon -->
  <g transform="translate(0,0)">
    <text x="800" y="1320" font-size="96" text-anchor="middle" fill="url(#metalGrad)" class="wordmark">SANDOOK</text>
    <text x="800" y="1426" font-size="48" text-anchor="middle" fill="#c9cdd0" class="submark">LLC</text>
  </g>

</svg>
